# xmcd
#
# Track frame offsets:
#	150
#	16080
#	32121
#	50703
#	70093
#	92809
#	111807
#	124500
#	146824
#	161363
#	180974
#	197895
#	215059
#	231802
#	245888
#	265162
#
# Disc length: 3724 seconds
#
# Revision: 0
# Processed by: cddbd v1.5.1PL0 Copyright (c) Steve Scherf et al.
# Submitted via: EZCDDA 4.3.3.2
#
DISCID=e40e8a10
DTITLE=Pino Daniele - The best of Pino Daniele - Yes I know my way
DYEAR=1998
DGENRE=
TTITLE0=Quando
TTITLE1=Io per lei
TTITLE2=Che male c'è
TTITLE3=Amore senza fine
TTITLE4=Senza peccato
TTITLE5=Dubbi non ho
TTITLE6=Resta...resta cu'mme
TTITLE7=Anna verra'
TTITLE8=Che soddisfazione
TTITLE9=Quanno chiove
TTITLE10=Napule è
TTITLE11=A testa in giù
TTITLE12=Je so' pazzo
TTITLE13=A me me piace 'o blues
TTITLE14=Che Dio ti benedica
TTITLE15=Per te
EXTD=YEAR: 1998
EXTT0=
EXTT1=
EXTT2=
EXTT3=
EXTT4=
EXTT5=
EXTT6=
EXTT7=
EXTT8=
EXTT9=
EXTT10=
EXTT11=
EXTT12=
EXTT13=
EXTT14=
EXTT15=
PLAYORDER=
